#tb 0: 1/25
0,          0,          0,        1,    62876, c21650baa099fb2dfd35d4f8ddce16d1
0,          1,          1,        1,    62832, 034a1996d13c15ee0bf482ddc398aac9
0,          2,          2,        1,    64076, 1f39fd5fc926195b90a3374682a80eac
0,          3,          3,        1,    62724, 4007f9193b9e3b19e991497bb73679ab
0,          4,          4,        1,    61664, 3e86c3a2cd07807433ed7f46ede959ec
0,          5,          5,        1,    63296, 4e7d334f3713ecc07fca77c945c758b7
0,          6,          6,        1,    63528, 15b8f92a1d84e77521c539a9a02379ac
0,          7,          7,        1,    62784, 07ead8344bde0c0a060c3313f39cf92e
0,          8,          8,        1,    63176, 0a8d9329d7f66008a0d41c6ba4749b09
0,          9,          9,        1,    63492, eefa6ba63516dd2ff9fb0a4e81169977
0,         10,         10,        1,    63328, 991fd8fcb392774d11b1766cc1dbe0d7
0,         11,         11,        1,    63328, e2745a89e96a7f0c641fa25a6ed2da83
0,         12,         12,        1,    62384, 2dd300b64a32ae2d6fb65e88128e5147
0,         13,         13,        1,    62944, 076331793373fe43cd213ae56fc19e0f
0,         14,         14,        1,    63932, 37b6b50e7219ba0e593e4ce1de02a864
0,         15,         15,        1,    64020, ed66d034f605621266054a54714feec9
0,         16,         16,        1,    62940, fb6a921a8551db3d33b0a24e7e9a3ced
0,         17,         17,        1,    63052, abac96a9e0128efd4362ec28e66464d2
0,         18,         18,        1,    62408, 0351d4c9579779dbb398f68f0e4e02e4
0,         19,         19,        1,    62148, b4f7ed147a1326cf5adae50af6db56ca
0,         20,         20,        1,    61692, 48a9cdf3d4600768feca7616614dc46d
0,         21,         21,        1,    61704, d8e6c2daa6ae50caf7d5ee9324812389
0,         22,         22,        1,    61964, 3983f0bf566d206cde013982722d4453
0,         23,         23,        1,    62812, b12b44c4df634f608380e2bfb26b717d
0,         24,         24,        1,    63480, 30ad52da50e0d4f1fc811d24a01e777b
0,         25,         25,        1,    62708, 2827bd4dec0fa603eaf92bae8c4deb72
0,         26,         26,        1,    62252, fd7c3a5bcaf83701dd7f2da225f3ce69
0,         27,         27,        1,    61752, ea9740f3a5f52baaa923e245f649f7c7
0,         28,         28,        1,    60248, cf4a142fc28437cca11ad1d127a2948f
0,         29,         29,        1,    60232, 6cd0b708ec41cd10357f8944ae8288bd
0,         30,         30,        1,    61240, c4a44f902a295f3a6e85276087adcbc0
0,         31,         31,        1,    62228, a36d5eafa03b784f35303b131ac5d3a0
0,         32,         32,        1,    62636, e09ca8f58690f991e1ce3986c2864924
0,         33,         33,        1,    63840, 830de5062cb9c8be8844118c7db4bcef
0,         34,         34,        1,    62996, e008d4add85b595840a2773d01465147
0,         35,         35,        1,    62480, 04a38e7c231697aa97e5a401d4329105
0,         36,         36,        1,    61744, 4cb276703869f45a6ab798e53e615fc0
0,         37,         37,        1,    62012, dfca9b52389b01d750a4b94d10a8e2e0
0,         38,         38,        1,    61748, bf2ec90514c268440313fecf68e2f41f
0,         39,         39,        1,    61688, 99f1c565dc76bde773ccb91b8dbb3860
0,         40,         40,        1,    60528, 7b66ad4e019964ead8ed1a9eadad9721
0,         41,         41,        1,    62248, 795e2a8351ac78bc482e341be3af98bb
0,         42,         42,        1,    61832, d7fc01097c5ec0247d20727aec2adab6
0,         43,         43,        1,    61688, 4492ffefcaed530fce3221f4bb61ef80
0,         44,         44,        1,    61216, d9a91c3007686b7166f297bc1dddb9a9
0,         45,         45,        1,    60192, 7c808c46b376c49fa3d5bd5ba97fce1c
0,         46,         46,        1,    59388, 6d2a2a72d14ff5c800295de6b2e23465
0,         47,         47,        1,    59620, 5c1aa124bb6ffb9cd33a6430bf07ea9f
0,         48,         48,        1,    59584, efc1012cca50e509856e406622d760fe
0,         49,         49,        1,    58800, fa8563a0bc6022f8f5c5fc70ce0d46f3
